<svg xmlns="http://www.w3.org/2000/svg" width="692.68042" height="596.95062" viewBox="0 0 692.68042 596.95062" xmlns:xlink="http://www.w3.org/1999/xlink"><path d="M0,590.9047c0,.8714,.69976,1.57111,1.57114,1.57111H691.10938c.87134,0,1.57104-.69971,1.57104-1.57111,0-.87134-.69977-1.57111-1.57104-1.57111H1.57114c-.87139,0-1.57114,.69977-1.57114,1.57111Z" fill="#3f3c57"/><g><polygon points="224.97621 63.44081 232.47475 97.65798 216.52524 145.28499 190.8288 94.11364 194.39422 64.42697 224.97621 63.44081" fill="#fdb4b4"/><rect x="189.49968" y="95.88581" width="44.36823" height="53.60808" fill="#6c63ff"/><circle cx="215.6229" cy="50.37625" r="30.30031" fill="#fdb4b4"/><path d="M189.24777,72.90763s-22.58591-41.71245-2.22203-61.78555c20.36388-20.0731,36.71103-6.84618,36.71103-6.84618l9.3348-.37726s1.94691,7.34635,5.0862,3.36946,8.81216,10.50643,8.81216,10.50643c10.52891,18.96209-25.97099,23.20996-25.97099,23.20996,0,0,2.63567,8.3958-.04329,10.15408s-9.83668,8.37259-9.83668,8.37259l-6.40665,4.83868-3.8073-5.80089s-3.97689-3.1393-5.98612-1.82059,.75452,18.66962,.75452,18.66962l-6.42568-2.49033s.00002-.00002,.00002-.00002Z" fill="#2e2e41"/><polygon points="152.89829 379.77918 141.31369 552.58279 169.7925 553.54818 207.44245 381.22726 152.89829 379.77918" fill="#2e2e41"/><polygon points="221.92319 378.8138 210.3386 551.61741 238.8174 552.58279 276.46735 380.26187 221.92319 378.8138" fill="#2e2e41"/><path d="M145.92245,419.2598l15.16064-188.20752-23.24951-98.00391c-2.00439-14.56836,7.1748-28.35303,21.3418-32.11182l22.75-6.03564,10.06934-10.06982,22.90332,50.57812,14.3042-50.53955,11.15576,8.11328,33.08643,14.59717-.01514,.3418-5.30713,118.38818,11.84668,191.27393-.52539,.00684-133.521,1.66895Z" fill="#e8e9ea"/><path d="M236.98881,550.61915l8.24609,24.61711s32.26084,4.38614,32.76281,14.37354-43.84414,4.20613-69.81136,5.51124-4.35153-26.8154-4.35153-26.8154l2.76715-16.15927,30.38685-1.52724v.00003Z" fill="#2e2e41"/><path d="M169.64643,548.84699l8.24609,24.61711s32.26084,4.38614,32.76281,14.37354-43.84414,4.20613-69.81136,5.51124c-25.96722,1.30511-4.35153-26.8154-4.35153-26.8154l2.76715-16.15927,30.38685-1.52724v.00003Z" fill="#2e2e41"/><path id="uuid-2e9cdd14-cd40-44c4-b003-f1a3b981567c-18" d="M129.41474,319.30488c-.3497-4.85365,.46838-9.72048,2.38571-14.19314l-6.15435-50.48595,24.1083-2.22585,3.64648,51.45174c2.42278,4.21847,3.80009,8.95581,4.01673,13.81572,.70904,12.15649-4.98497,22.37264-12.71864,22.82398-7.73367,.45133-14.57712-9.03419-15.28426-21.18645h.00004s-.00003-.00004-.00003-.00004Z" fill="#fdb4b4"/><path id="uuid-74c4bb10-58cd-4f20-bec4-5b513b91c520-19" d="M282.11049,326.7154c-.29676-4.85717,.57433-9.7148,2.54031-14.16629l-5.60358-50.55004,24.13114-1.96289,3.08533,51.48843c2.37665,4.24463,3.70223,8.99671,3.86587,13.85869,.57647,12.1635-5.22858,22.31697-12.96672,22.68396-7.73813,.36699-14.47776-9.19258-15.05237-21.35182h.00004s-.00003-.00004-.00003-.00004Z" fill="#fdb4b4"/><path d="M125.54696,299.05814l-.08154-.43555-12.56445-67.41455,14.84619-109.77734c1.32471-9.80078,10.07617-16.86084,19.94482-16.07178,5.15381,.4126,9.77783,2.85693,13.02148,6.88379,3.24316,4.02686,4.64648,9.06592,3.95117,14.18945l-11.17383,82.33154,7.03516,88.06152-34.979,2.23291Z" fill="#e8e9ea"/><path d="M274.66464,297.47611l-25.26123-168.62109c-1.31299-4.94434-.54443-10.11865,2.17529-14.51562s7.00586-7.39502,12.06934-8.44238c9.68701-2.00342,19.25244,3.91797,21.78076,13.47852l24.26807,175.98291-35.03223,2.11768Z" fill="#e8e9ea"/><circle cx="215.63915" cy="147.72172" r="3.10129" fill="#d6d7d8"/><circle cx="215.63915" cy="171.20295" r="3.10129" fill="#d6d7d8"/><circle cx="215.63915" cy="194.68417" r="3.10129" fill="#d6d7d8"/><circle cx="215.63915" cy="218.1654" r="3.10129" fill="#d6d7d8"/><circle cx="215.63915" cy="241.64662" r="3.10129" fill="#d6d7d8"/><circle cx="215.63915" cy="265.12785" r="3.10129" fill="#d6d7d8"/><circle cx="215.63915" cy="288.60907" r="3.10129" fill="#d6d7d8"/><circle cx="215.63915" cy="312.0903" r="3.10129" fill="#d6d7d8"/><polygon points="215.64283 333.35575 156.96283 325.53575 155.83283 325.38572 125.84284 256.2357 107.98279 215.06571 154.50281 215.06571 215.64283 333.35575" fill="#6c63ff"/></g><g><polygon points="450.91831 70.96385 488.22564 50.52592 488.22564 108.92 445.0789 108.92 450.91831 70.96385" fill="#2e2e41"/><polygon points="496.2244 83.98282 499.66748 112.65083 474.85279 162.0663 459.45056 116.07355 466.6918 83.0305 496.2244 83.98282" fill="#fdb4b4"/><rect x="458.10521" y="114.36219" width="42.84579" height="51.76859" transform="translate(959.05621 280.49297) rotate(-180)" fill="#6c63ff"/><polygon points="536.29646 388.51412 547.48355 555.3882 519.98195 556.32045 483.62392 389.91251 536.29646 388.51412" fill="#2e2e41"/><polygon points="469.64005 387.58186 480.82714 554.45594 453.32555 555.3882 416.96751 388.98025 469.64005 387.58186" fill="#2e2e41"/><path d="M565.35214,423.90726l-.65527-.00195-175.19824-.57227,.15723-.62012,45.04297-178.46143-11.2832-90.06299c-2.1377-17.06592,6.99805-33.19678,22.7334-40.13867l5.68066-2.50586,10.79199-7.84814,13.80566,48.78369,22.1084-48.82178,9.73926,9.73779,21.96387,5.82764c13.69043,3.63184,22.55957,16.95166,20.63086,30.98291l-.02344,.09766-33.54199,95.70947,48.04785,177.89404Z" fill="#e8e9ea"/><path d="M455.0914,553.49191l29.34416,1.47484,2.67219,15.60479s20.87398,27.1556-4.20221,25.89527c-25.07619-1.26033-67.90062,4.32256-67.41587-5.32213s31.63859-13.88033,31.63859-13.88033l7.96314-23.7724v-.00003Z" fill="#2e2e41"/><path d="M520.12301,551.78055l29.34416,1.47484,2.67219,15.60479s20.87398,27.1556-4.20221,25.89527c-25.07619-1.26033-67.90062,4.32256-67.41587-5.32213s31.63859-13.88033,31.63859-13.88033l7.96314-23.7724v-.00003Z" fill="#2e2e41"/><path id="uuid-e3424436-9869-435b-8d85-901a487076b5-20" d="M546.99467,328.4036h.00004c-.68288,11.73527-7.2915,20.89531-14.7598,20.45947-7.4683-.43584-12.96693-10.30145-12.28222-22.0408,.20921-4.69315,1.53925-9.26794,3.8789-13.34165l3.52136-49.68624,23.28106,2.14947-5.94317,48.75359c1.85154,4.31919,2.64155,9.01902,2.30385,13.70612l-.00003,.00004Z" fill="#fdb4b4"/><path id="uuid-e3ffccf0-71b2-4a76-a2e6-0f3bc8249c5f-21" d="M427.35586,323.94124h.00004c-.93252,11.71808-7.73463,20.73537-15.19196,20.14065s-12.74471-10.57513-11.81026-22.29725c.30906-4.68763,1.73619-9.23307,4.16202-13.25606l4.5782-49.60002,23.23003,2.64456-6.97961,48.61603c1.75918,4.35762,2.44897,9.07321,2.01158,13.75206l-.00003,.00004Z" fill="#fdb4b4"/><path d="M550.74374,308.86966l-33.81152-2.1582,.04102-.50684,6.75391-84.54883-10.78906-79.50439c-.67285-4.95215,.68359-9.82324,3.81836-13.71533,3.13477-3.89258,7.60449-6.25537,12.58691-6.6543h0c9.53906-.75195,17.99707,6.06201,19.27832,15.53516l14.33691,106.01318-.01465,.0791-12.2002,65.46045Z" fill="#e8e9ea"/><path d="M432.98495,305.63089l-33.86523-2.04736,.07422-.53467,23.35254-169.37012c2.45605-9.30225,11.70605-15.02393,21.06543-13.08838,4.89453,1.01221,9.03711,3.91016,11.66602,8.16064s3.37207,9.25146,2.0918,14.08252l-24.38477,162.79736Z" fill="#e8e9ea"/><circle cx="475.70847" cy="164.41942" r="2.99488" fill="#d6d7d8"/><circle cx="475.70847" cy="187.09492" r="2.99488" fill="#d6d7d8"/><circle cx="475.70847" cy="209.77041" r="2.99488" fill="#d6d7d8"/><circle cx="475.70847" cy="232.44591" r="2.99488" fill="#d6d7d8"/><circle cx="475.70847" cy="255.12141" r="2.99488" fill="#d6d7d8"/><circle cx="475.70847" cy="277.7969" r="2.99488" fill="#d6d7d8"/><circle cx="475.70847" cy="300.4724" r="2.99488" fill="#d6d7d8"/><circle cx="475.70847" cy="323.1479" r="2.99488" fill="#d6d7d8"/><circle cx="480.25484" cy="70.60121" r="28.0126" fill="#fdb4b4"/><path d="M494.9351,37.90001c1.34233,2.73002-.78644,6.14016-3.60379,7.28794s-5.99995,.68273-9.00438,.20496-6.19162-.93081-9.00061,.23728c-3.6346,1.5114-5.68342,5.30272-7.44885,8.82095-3.29578,6.56796-6.59156,13.13592-9.88734,19.70388-1.61026,3.20898-3.257,6.56223-3.28802,10.15242-.05695,6.59007,5.17089,11.85661,7.98365,17.81652,3.42469,7.25651,3.14229,16.14937-.73591,23.17396-3.87819,7.02459-11.25322,12.00168-19.21865,12.96985-2.09575,.25472-4.31388,.22707-6.19816-.72504s-3.32245-3.03139-2.97349-5.11352c.68251-4.07247,6.9053-5.02404,8.04816-8.99201,.59659-2.07135-.45999-4.28337-1.88439-5.90124s-3.22566-2.87991-4.58431-4.55338c-3.13287-3.85881-3.34158-9.81566-.4865-13.88428,1.67792-2.39111,4.2731-4.1676,5.35753-6.87995,.92433-2.31188,.58864-4.91064,.23857-7.37572-.44984-3.16758-.89968-6.33516-1.3495-9.50274-.52482-3.69564-1.04167-7.52378-.00444-11.1095,2.37692-8.21708,11.65508-12.07628,17.09621-18.67659,2.52845-3.06711,4.22925-6.75578,6.82321-9.76769,4.353-5.0544,11.2061-7.84266,17.85137-7.26305,6.64527,.57962,12.91215,4.51224,16.32436,10.24394" fill="#2e2e41"/><path d="M490.51275,38.41812c-1.36857,.48943-1.87639,2.27196-1.48246,3.67102,.39392,1.39905,1.42548,2.51068,2.36969,3.61567,10.67897,12.4976,13.16112,31.40143,6.07047,46.23225-1.88604,3.94485-4.39844,7.65742-5.41573,11.90996-.74021,3.09426-.70041,6.48836-2.41699,9.1671-1.74764,2.7272-5.21078,4.55455-5.55328,7.77551-.21979,2.06699,1.04008,4.07476,2.72892,5.2866s3.75203,1.76633,5.78091,2.21843c5.27338,1.17508,10.6655,1.8166,16.06739,1.91158,1.7611,.03097,3.5784-.00714,5.19396-.70886,1.61555-.70172,2.9945-2.22359,3.01294-3.98486,.01449-1.38427-.78388-2.66127-.88572-4.04187-.30515-4.13684,5.26141-6.33762,6.34594-10.34142,.71302-2.63228-.6918-5.34093-2.18834-7.62076-1.49655-2.27983-3.20425-4.6738-3.16742-7.4007,.03526-2.61049,1.67354-4.90948,2.31023-7.44138,.88069-3.50216-.20119-7.16535-1.2743-10.61342-.91233-2.93147-1.82465-5.86292-2.73698-8.79439-.96983-3.11624-1.93966-6.23248-2.9095-9.34872-1.69315-5.44035-3.47048-11.0383-7.13446-15.40172-3.66399-4.36341-9.73513-7.22331-15.1472-5.44181" fill="#2e2e41"/></g><g><path d="M509.60116,146.96732l-1.91992-.55957c4-13.71533-4.625-39.31006-4.71191-39.56689l1.89258-.64551c.36621,1.07373,8.91504,26.45605,4.73926,40.77197Z" fill="#3f3c57"/><circle cx="508.64126" cy="154.36679" r="8.35408" fill="#3f3c57"/><path d="M453.7496,183.9429h-5.06641c-.55273,0-1-.44775-1-1s.44727-1,1-1h5.06641c1.39648,0,2.70801-.54395,3.69434-1.53223,.98535-.98779,1.52734-2.30078,1.52441-3.69629l-.06152-31.20654c0-6.7793-5.51367-12.29297-12.29102-12.29297s-12.29199,5.51367-12.29199,12.29102l.06152,29.20947c.00586,2.84961,2.3291,5.18555,5.17871,5.20752l3.47754,.02637c.55176,.00439,.99609,.45508,.99219,1.00781-.00391,.54932-.45117,.99219-1,.99219h-.00781l-3.47754-.02637c-3.94141-.03027-7.15527-3.26221-7.16309-7.20361l-.06152-29.21143c0-7.88184,6.41113-14.29297,14.29199-14.29297,7.87988,0,14.29102,6.41113,14.29102,14.29102l.06152,31.20459c.00391,1.93066-.74512,3.74658-2.10938,5.11279-1.36328,1.3667-3.17871,2.11963-5.10938,2.11963Z" fill="#3f3c57"/><circle cx="443.03412" cy="180.94931" r="3.54434" fill="#3f3c57"/><circle cx="448.68291" cy="182.943" r="3.54434" fill="#3f3c57"/></g><path d="M244.07134,131.97773l-1.91992-.55957c4-13.71533-4.52802-39.70649-4.61493-39.96333l2.39981,1.80909c.36621,1.07373,8.31082,24.39789,4.13504,38.71381Z" fill="#3f3c57"/><path d="M176.58131,134.41446l1.91992-.55957c-4-13.71533,4.625-39.31006,4.71191-39.56689l-2.05375,1.37573c-.36621,1.07373-8.75386,24.43481-4.57808,38.75073Z" fill="#3f3c57"/><circle cx="243.11143" cy="139.37721" r="8.35408" fill="#3f3c57"/><path d="M185.48768,185.78891h-5.06641c-.55273,0-1-.44775-1-1s.44727-1,1-1h5.06641c1.39648,0,2.70801-.54395,3.69434-1.53223,.98535-.98779,1.52734-2.30078,1.52441-3.69629l-.06152-31.20654c0-6.7793-5.51367-12.29297-12.29102-12.29297s-12.29199,5.51367-12.29199,12.29102l.06152,29.20947c.00586,2.84961,2.3291,5.18555,5.17871,5.20752l3.47754,.02637c.55176,.00439,.99609,.45508,.99219,1.00781-.00391,.54932-.45117,.99219-1,.99219h-.00781l-3.47754-.02637c-3.94141-.03027-7.15527-3.26221-7.16309-7.20361l-.06152-29.21143c0-7.88184,6.41113-14.29297,14.29199-14.29297,7.87988,0,14.29102,6.41113,14.29102,14.29102l.06152,31.20459c.00391,1.93066-.74512,3.74658-2.10938,5.11279-1.36328,1.3667-3.17871,2.11963-5.10938,2.11963Z" fill="#3f3c57"/><circle cx="174.7722" cy="182.79532" r="3.54434" fill="#3f3c57"/><circle cx="180.42099" cy="184.78901" r="3.54434" fill="#3f3c57"/></svg>